<?xml version="1.0" encoding="UTF-8" standalone="no"?>
<!-- Created with Inkscape (http://www.inkscape.org/) -->

<svg
   xmlns:dc="http://purl.org/dc/elements/1.1/"
   xmlns:cc="http://creativecommons.org/ns#"
   xmlns:rdf="http://www.w3.org/1999/02/22-rdf-syntax-ns#"
   xmlns:svg="http://www.w3.org/2000/svg"
   xmlns="http://www.w3.org/2000/svg"
   version="1.1"
   width="1542.8668"
   height="198.92397"
   id="svg3104">
  <metadata
     id="metadata3110">
    <rdf:RDF>
      <cc:Work
         rdf:about="">
        <dc:format>image/svg+xml</dc:format>
        <dc:type
           rdf:resource="http://purl.org/dc/dcmitype/StillImage" />
        <dc:title></dc:title>
      </cc:Work>
    </rdf:RDF>
  </metadata>
  <defs
     id="defs3108" />
  <path
     d="m 1251.6165,186.95461 c -5.1206,-3.12219 -7.9472,-8.50081 -17.4757,-33.25308 -10.5322,-27.35993 -15.9333,-39.25319 -19.5314,-43.00882 -3.0372,-3.17014 -7.5556,-4.85056 -15.2753,-5.68096 -5.0501,-0.54323 -5.5076,-0.8001 -5.5076,-3.09244 0,-2.475519 0.1077,-2.506399 11,-3.153849 23.3623,-1.38869 34.7119,-10.1738 37.6624,-29.15235 1.4431,-9.28195 0.179,-21.03354 -3.2476,-30.19191 -3.1125,-8.319022 -11.5102,-16.710329 -18.9274,-18.912992 -7.4296,-2.206354 -21.4205,-2.118785 -25.9874,0.162656 -7.2452,3.619395 -6.9967,0.975261 -6.9984,74.461426 0,64.152089 -0.051,65.838069 -2.0773,70.979119 -2.2272,5.65036 -9.0615,15.77776 -13.316,19.73221 l -2.6083,2.42432 -0.013,-4.42432 c -0.01,-2.43337 -0.096,-35.68499 -0.197,-73.89249 -0.1012,-38.207489 -0.5098,-71.868269 -0.9078,-74.80172 -1.2816,-9.444116 -7.2823,-15.148954 -19.0748,-18.134526 -4.9236,-1.246506 -6.7579,-2.079932 -5.6229,-2.554691 0.9265,-0.387549 19.1515,-0.520086 40.5,-0.294526 42.3486,0.447439 43.9557,0.63788 57.1304,6.770094 16.48,7.670644 24.9383,25.27468 21.229,44.18357 -2.7362,13.94879 -10.2982,23.18561 -26.2745,32.09389 -4.7286,2.63666 -9.1231,5.427239 -9.7655,6.201289 -0.9343,1.12578 0.025,2.97451 4.794,9.23946 12.0149,15.78345 21.8494,33.2996 29.2263,52.05473 4.2396,10.77903 6.4959,12.67167 13.9757,11.72358 12.4236,-1.57474 13.7419,-0.54839 6.3145,4.91615 -9.8729,7.26374 -22.3526,9.67424 -29.0245,5.60618 z"
     id="path3178"
     style="fill:#000000" />
  <path
     d="m 1415.5765,188.10595 c -4.9947,-0.48158 -3.8723,-1.804 2.6142,-3.08014 7.4293,-1.46164 14.0224,-5.80371 17.1768,-11.31232 l 2.459,-4.29418 0.2851,-77.903449 0.2851,-77.903454 3.0699,2.903452 c 3.5425,3.350384 9.6105,12.095439 12.423,17.903452 1.8421,3.804167 1.9614,7.35365 2.4369,72.499999 0.536,73.43039 0.4329,72.0735 5.624,74.04713 4.3956,1.67122 27.2857,2.33841 33.876,0.9874 15.3612,-3.14904 24.0792,-10.41049 31.9681,-26.62694 2.569,-5.28101 4.8171,-9.44563 4.9956,-9.25471 0.4059,0.43398 -0.8568,14.21503 -2.4874,27.14649 -0.8081,6.40809 -1.8521,10.56095 -3.0169,12 l -1.7811,2.20063 -53.3392,0.5 c -29.3365,0.275 -54.8016,0.35899 -56.5891,0.18664 z"
     id="path3160"
     style="fill:#000000" />
  <path
     d="M 46.89493,186.75385 C 37.702693,184.99843 25.213624,178.23452 12.413255,168.07903 L 10,166.16442 l 2.12743,-1.13857 c 1.863656,-0.99739 3.029161,-0.44185 9.400189,4.48067 8.803608,6.80202 14.814134,9.9457 23.049311,12.05546 16.27171,4.16862 32.8765,-3.0926 40.22246,-17.58916 4.97152,-9.81081 6.83737,-23.9644 4.42314,-33.55217 C 87.0579,121.82412 76.67707,113.25484 52.32651,99.963311 27.429655,86.373581 18.5431,79.164941 13.233716,68.251791 8.596043,58.719311 9.631905,44.574221 15.882639,32.079741 20.130778,23.588212 25.960449,17.724466 34.183048,13.672365 39.916532,10.846901 41.65869,10.497023 51.9569,10.102837 c 15.36057,-0.5879587 20.01105,1.16121 26.76352,10.066474 1.56391,2.0625 3.44385,3.75 4.17766,3.75 0.7338,0 2.76997,-1.786644 4.52482,-3.970321 1.75485,-2.183676 3.57606,-3.732118 4.04712,-3.440983 0.47107,0.291136 0.85649,3.60986 0.85649,7.374943 0,3.765083 0.6853,13.026618 1.52289,20.581191 1.44786,13.05892 1.33294,17.45517 -0.45629,17.45517 -0.43924,0 -1.81076,-2.8125 -3.04782,-6.25 C 84.38535,39.108031 73.33478,21.783051 65.6042,16.88046 61.64669,14.370684 59.93588,13.9208 54.38073,13.92908 38.584425,13.95262 26.679319,25.769834 25.556726,42.540271 c -0.689032,10.29348 1.546115,16.32389 8.679907,23.41833 4.736761,4.71063 8.776417,7.14029 26.469097,15.91989 23.53715,11.67979 34.55031,19.139179 39.38805,26.678139 9.35212,14.57402 9.39055,31.82607 0.11218,50.36369 -7.44182,14.86831 -21.39131,25.43446 -36.87945,27.93462 -7.48596,1.20842 -9.64389,1.19514 -16.43158,-0.10109 z"
     id="path3158"
     style="fill:#000000" />
  <path
     d="m 170.27711,186.85839 c -23.26158,-3.42481 -38.1995,-19.72189 -43.94096,-47.93908 -1.99495,-9.80444 -2.16738,-14.28735 -2.60297,-67.672499 -0.28882,-35.398027 -0.10618,-57.395182 0.47958,-57.757196 1.61743,-0.999628 10.00732,9.546631 14.15688,17.795491 l 3.95687,7.865795 0.0173,46.63421 c 0.01,25.648809 0.454,50.909199 0.98772,56.134199 1.82047,17.82226 6.96539,28.39346 16.08256,33.0447 10.0568,5.13059 26.94439,4.81418 38.74897,-0.72602 7.17905,-3.36931 16.76098,-13.00497 20.41303,-20.5275 5.66927,-11.67764 5.82589,-13.7526 5.52534,-73.200199 -0.26673,-52.755618 -0.3347,-54.448247 -2.27259,-56.58899 -2.86617,-3.166194 -7.03939,-5.135774 -14.79913,-6.984544 -3.73823,-0.890639 -6.88823,-2.046416 -7,-2.568394 -0.23438,-1.094642 46.39176,-1.884072 50.2968,-0.851578 2.03501,0.538057 1.11058,1.011338 -4.97016,2.544574 -8.51686,2.147493 -14.76388,5.822045 -15.48744,9.109847 -0.27211,1.236458 -0.66256,26.773105 -0.86767,56.748105 -0.35697,52.170109 -0.46652,54.862339 -2.56259,62.975679 -6.18008,23.92148 -20.02378,38.99108 -38.61214,42.03138 -6.77807,1.10862 -9.63295,1.09756 -17.5494,-0.068 z"
     id="path3156"
     style="fill:#000000" />
  <path
     d="m 378.17539,186.66931 c 0.68688,-0.6875 4.66579,-1.77998 8.84202,-2.42773 4.24079,-0.65777 8.30305,-1.8875 9.20112,-2.78537 1.44218,-1.44187 1.63577,-8.98347 1.8775,-73.1429 0.19018,-50.474779 -0.0604,-72.760651 -0.85123,-75.697451 -1.60715,-5.96851 -8.03082,-12.058549 -14.85753,-14.085863 -2.98307,-0.885877 -6.21553,-1.610685 -7.18324,-1.610685 -2.0577,0 -3.61981,-1.949853 -1.68654,-2.105154 0.71996,-0.05783 22.23402,-0.221734 47.80902,-0.364221 49.87455,-0.277868 64.23361,0.274414 66.51761,2.558418 1.50942,1.509417 5.8774,33.099747 5.22761,37.807377 l -0.35937,2.60358 -1.26223,-3 c -6.53465,-15.53126 -12.19297,-23.421237 -20.23283,-28.212733 -8.65766,-5.159681 -16.03761,-6.557592 -32.3874,-6.134823 -15.37559,0.397579 -18.63058,1.421683 -20.54802,6.464955 -0.53673,1.411686 -0.95537,16.898051 -0.95537,35.340711 0,29.01227 0.18385,32.89846 1.58179,33.4349 0.86998,0.33385 13.46998,0.60699 28,0.60699 l 26.41821,0 0,3 0,2.999999 -26.8,0 c -19.51111,0 -27.12637,0.32637 -28,1.2 -0.88607,0.88607 -1.2,10.05548 -1.2,35.04966 0,37.81209 0.0417,38.06901 6.70595,41.34665 4.68317,2.30328 27.96132,3.23736 36.50046,1.46464 15.37972,-3.19282 24.4804,-11.32722 34.79359,-31.09935 7.95341,-15.24803 8.49333,-14.0765 4.0235,8.73038 -4.04453,20.63687 -4.92909,23.91828 -7.23924,26.85516 l -1.92942,2.45286 -56.62742,0 c -45.30134,0 -56.37763,-0.25001 -55.37854,-1.25 z"
     id="path3154"
     style="fill:#000000" />
  <path
     d="m 605.20906,185.98366 c -5.50071,-3.0049 -8.89999,-9.39294 -18.92495,-35.56435 -12.63431,-32.98346 -16.3136,-40.35872 -21.57302,-43.24382 -2.26347,-1.24165 -6.31347,-2.51129 -9,-2.82142 -8.82031,-1.01821 -9.54219,-1.31013 -9.1995,-3.72011 0.29264,-2.057999 0.9914,-2.258849 9.87844,-2.839479 21.17585,-1.38352 32.83584,-8.19649 37.57637,-21.95601 2.44334,-7.09183 2.82489,-18.51935 0.93049,-27.86856 -3.70505,-18.285173 -12.08729,-27.340649 -27.84867,-30.085374 -9.66731,-1.68349 -19.10072,-0.04756 -23.16656,4.017508 l -3.05515,3.054566 -0.5,68.23135 c -0.49898,68.091859 -0.50459,68.241299 -2.74522,73.097659 -2.50025,5.41907 -9.87283,16.10439 -13.13617,19.03868 l -2.11861,1.90499 -0.0192,-5.40499 c -0.0105,-2.97275 -0.123,-37.80499 -0.24996,-77.40499 -0.25575,-79.770731 0.0928,-75.595695 -6.8616,-82.199318 -3.81524,-3.622825 -8.41539,-5.755209 -14.61924,-6.776697 -2.3375,-0.384879 -4.25,-1.043838 -4.25,-1.464355 0,-1.47887 16.82099,-1.861891 48.5,-1.104365 34.31052,0.820452 37.79734,1.296547 49.32802,6.735309 20.25694,9.554745 27.82173,34.194777 17.17181,55.932007 -3.58704,7.32138 -9.00373,12.54495 -19.05069,18.37145 -10.0837,5.8478 -13.93417,8.379609 -13.94231,9.167529 -0.004,0.36387 3.2988,5.08887 7.33902,10.5 12.3737,16.57233 20.98245,32.23523 28.12816,51.17685 2.08947,5.53871 3.53572,7.82065 5.8972,9.30481 3.15714,1.98421 3.87328,1.99562 14.87879,0.23715 7.36445,-1.1767 2.80671,4.49719 -7.81156,9.72455 -8.15428,4.01434 -16.41897,4.7656 -21.55589,1.95943 z"
     id="path3152"
     style="fill:#000000" />
  <path
     d="m 816.01401,12.950561 c -8.4511,0.03295 -16.6875,0.339114 -16.6875,0.875 0,0.495143 2.3625,1.446338 5.25,2.125 12.49291,2.936265 13.52975,4.684728 10.28125,17.1875 -2.15612,8.29846 -41.9273,148.354839 -43.03125,151.531249 -0.29102,0.83734 0.66706,1.25 2.90625,1.25 l 3.34375,0 3.625,-12.75 c 9.71727,-34.23308 14.52093,-49.47424 16.15625,-51.28125 1.68485,-1.86174 3.12982,-1.96875 24,-1.96875 20.86156,0 22.36966,0.10971 24.8125,2.03125 2.08038,1.63642 3.79969,5.88835 8.6875,21.25 4.29752,13.50649 7.18611,20.7962 9.6875,24.5 3.59015,5.3159 11.42894,12.64039 18.78125,17.5625 2.19819,1.4716 4.15786,2.21394 4.34375,1.65625 0.46056,-1.38166 -7.95642,-30.04605 -19.96875,-68 C 840.08927,30.0963 834.9386,14.344849 833.92026,13.669311 c -0.8031,-0.532754 -9.45515,-0.751704 -17.90625,-0.71875 z m 6.21875,26.96875 c 1.01373,0 2.30751,0.5625 2.875,1.25 0.56749,0.6875 5.18321,15.8817 10.25,33.75 8.46899,29.866299 9.10791,32.690529 7.8125,34.999999 l -1.40625,2.5 -19.1875,0.28125 -19.1875,0.25 -1.65625,-2.53125 c -1.52559,-2.32834 -1.54589,-3.0063 -0.15625,-7.78125 16.04487,-55.131919 18.54573,-62.718749 20.65625,-62.718749 z"
     id="path3150"
     style="fill:#000000" />
  <path
     d="m 1056.9955,186.87301 c -22.346,-3.75165 -36.7412,-19.65672 -42.8998,-47.39945 -1.8527,-8.34603 -2.0466,-13.64967 -2.4778,-67.804249 -0.3244,-40.72532 -0.1452,-58.75 0.5839,-58.75 1.9213,0 11.413,12.401271 14.5423,19 l 3.0824,6.5 0.5997,53.5 c 0.6253,55.779319 0.9434,59.968829 5.358,70.563959 2.271,5.4506 7.884,10.90657 13.8695,13.48146 6.1778,2.65761 18.2494,3.64003 25.5331,2.07795 17.7587,-3.80856 31.7363,-18.2951 35.7013,-37.00137 1.1028,-5.20267 1.4066,-17.98175 1.4173,-59.621999 0.013,-51.452745 -0.045,-53.096865 -2.0093,-56.318029 -2.2137,-3.630958 -7.5094,-6.41851 -15.4858,-8.151513 -7.6073,-1.65281 -8.2283,-1.948003 -6.4558,-3.06894 1.8352,-1.160604 47.9813,-1.241993 49.8019,-0.08784 0.8844,0.560684 -0.9578,1.417529 -5.5,2.558215 -3.7565,0.943337 -8.344,2.650682 -10.1946,3.794099 -6.1871,3.822762 -6.1353,3.30192 -6.1353,61.676518 0,57.153519 -0.1794,59.558189 -5.4974,73.686929 -9.1454,24.29685 -28.559,35.60757 -53.8336,31.36426 z"
     id="path3146"
     style="fill:#000000" />
  <path
     d="m 648.00217,186.16931 c -0.2433,-0.4125 -0.49842,-34.51536 -0.56691,-75.78414 -0.0732,-44.084639 -0.51712,-76.402959 -1.0763,-78.352709 -2.2614,-7.885042 -8.64416,-12.87286 -19.28245,-15.068306 -3.1625,-0.652652 -5.75,-1.604736 -5.75,-2.115742 0,-0.539476 7.9532,-0.929102 18.9652,-0.929102 l 18.96521,0 3.28479,2.900864 c 1.80664,1.595475 4.84077,5.532975 6.7425,8.75 1.90174,3.217025 19.48667,30.149136 39.07763,59.849136 19.59096,29.699999 36.46118,55.448389 37.48938,57.218639 2.49286,4.29196 4.22844,4.82454 4.80444,1.47429 0.95225,-5.53865 0.59692,-111.730215 -0.38611,-115.392638 -1.41336,-5.265667 -5.13168,-7.433845 -17.85646,-10.412246 -6.09289,-1.426121 -10.82836,-2.996844 -10.52326,-3.490496 0.70877,-1.146822 60.43668,-1.189538 60.43668,-0.04322 0,0.469879 -3.4875,1.856199 -7.75,3.080711 -13.23577,3.802311 -13.95771,4.084514 -15.87908,6.207078 -1.78567,1.972652 -1.8937,5.682199 -2.37092,81.412801 -0.38774,61.53179 -0.7802,79.62609 -1.74805,80.59358 -0.99724,0.99688 -1.96802,0.55467 -4.83059,-2.20045 -4.54205,-4.37154 -12.65073,-15.27191 -18.55862,-24.94805 C 710.21939,124.5742 663.42314,50.762631 660.94951,48.130411 c -1.90081,-2.02268 -3.86696,-3.17768 -5.10687,-3 -1.99701,0.28616 -2.01856,0.95995 -2.27284,71.038899 l -0.25671,70.75 -2.43427,0 c -1.33885,0 -2.63334,-0.3375 -2.87665,-0.75 z"
     id="path3144"
     style="fill:#000000" />
  <path
     d="m 926.09364,104.68222 c -0.25749,-79.575332 -0.33585,-82.629462 -2.17212,-84.658221 -1.73817,-1.920386 -2.97287,-2.104688 -14.09996,-2.104688 -11.84655,0 -12.30842,0.08218 -16.16574,2.876407 -6.38903,4.62819 -14.32132,17.952758 -17.32242,29.098013 -0.63302,2.35085 -1.64669,5.45581 -2.25261,6.89992 l -1.10166,2.62566 -0.57631,-3.5 c -0.58388,-3.54597 0.45928,-31.031339 1.46679,-38.647315 0.49262,-3.723786 0.87586,-4.205936 3.75277,-4.721341 4.47885,-0.802395 109.32633,-0.609635 114.13363,0.209831 3.0932,0.527271 4.0746,1.212158 4.611,3.217807 1.1301,4.225578 1.5715,42.892138 0.4929,43.181598 -0.5316,0.14268 -2.4056,-4.51767 -4.1644,-10.35633 -4.4164,-14.660707 -6.8871,-20.008032 -11.1808,-24.198777 -5.1952,-5.070624 -10.5583,-6.685473 -22.2031,-6.685473 -15.6131,0 -13.921,-8.6831097 -14.2258,73 l -0.2593,69.499999 -2.2931,4.93334 c -2.6503,5.70204 -9.81224,15.97171 -13.5815,19.47488 l -2.59113,2.40821 -0.26714,-82.55352 z"
     id="path3142"
     style="fill:#000000" />
  <path
     d="m 280.32651,108.38719 c 0,-85.075792 0.28113,-81.078684 -6.13076,-87.167198 -3.98435,-3.783406 -8.56798,-5.841567 -15.22007,-6.834179 -2.66796,-0.398107 -4.32837,-1.046733 -3.6898,-1.44139 1.77766,-1.098653 67.52778,-1.17159 76.04063,-0.08435 22.48471,2.871685 36.91474,12.807019 41.9954,28.914578 4.99287,15.82924 0.36326,33.13252 -11.85181,44.29641 -11.12363,10.16637 -27.70161,16.141959 -45.13961,16.270739 -10.20773,0.0754 -10.49925,0.0157 -10.61347,-2.17249 -0.0752,-1.439969 0.46343,-2.262119 1.49603,-2.283679 8.74321,-0.18248 22.78576,-2.24593 27.63719,-4.06108 7.93603,-2.96925 15.46513,-10.44159 18.0735,-17.93725 2.77373,-7.97085 2.59722,-24.95764 -0.35878,-34.52804 -5.26121,-17.033808 -17.31401,-25.211652 -35.73301,-24.244902 -9.87773,0.518449 -14.42401,2.722783 -16.199,7.854335 -0.87558,2.53133 -1.20859,21.064647 -1.25,69.566257 l -0.0564,66.115649 -3.56376,7.12352 c -3.3363,6.66889 -12.53027,18.14519 -14.53658,18.14519 -0.52514,0 -0.89966,-32.27569 -0.89966,-77.53212 z"
     id="path3140"
     style="fill:#000000" />
  <path
     d="m 1332.014,12.950561 c -8.4511,0.0329 -16.6875,0.33911 -16.6875,0.875 0,0.49514 2.3625,1.44634 5.25,2.125 12.4929,2.93627 13.5298,4.68473 10.2812,17.1875 -2.1561,8.29846 -41.9273,148.354839 -43.0312,151.531249 -0.291,0.83734 0.6671,1.25 2.9062,1.25 l 3.3438,0 3.625,-12.75 c 9.7173,-34.23308 14.5209,-49.47424 16.1562,-51.28125 1.6849,-1.86174 3.1299,-1.96875 24,-1.96875 20.8616,0 22.3697,0.10971 24.8125,2.03125 2.0804,1.63642 3.7997,5.88835 8.6875,21.25 4.2976,13.50649 7.1862,20.7962 9.6875,24.5 3.5902,5.3159 11.429,12.64039 18.7813,17.5625 2.1982,1.4716 4.1579,2.21394 4.3437,1.65625 0.4606,-1.38166 -7.9564,-30.04605 -19.9687,-68 -28.1122,-88.823009 -33.2629,-104.574459 -34.2813,-105.249999 -0.803,-0.53275 -9.4551,-0.7517 -17.9062,-0.71875 z m 6.2187,26.96875 c 1.0138,0 2.3076,0.5625 2.875,1.25 0.5675,0.6875 5.1833,15.8817 10.25,33.75 8.469,29.866299 9.108,32.690529 7.8125,34.999999 l -1.4062,2.5 -19.1875,0.28125 -19.1875,0.25 -1.6563,-2.53125 c -1.5255,-2.32834 -1.5458,-3.0063 -0.1562,-7.78125 16.0449,-55.131919 18.5457,-62.718749 20.6562,-62.718749 z"
     id="path3181"
     style="fill:#000000" />
</svg>
